<svg width="20" height="20" viewBox="0 0 20 20" fill="none" xmlns="http://www.w3.org/2000/svg">
<path d="M12.1667 13.333H17.5002C18.4207 13.333 19.1668 12.5868 19.1668 11.6664V9.91271C19.1668 9.69504 19.1242 9.47946 19.0413 9.27813L16.4627 3.01571C16.3341 2.70346 16.0297 2.49971 15.6921 2.49971H1.66683C1.2066 2.49971 0.833496 2.87279 0.833496 3.33304V11.6664C0.833496 12.1266 1.2066 12.4997 1.66683 12.4997H4.56836C4.83914 12.4997 5.09302 12.6312 5.24917 12.8525L9.79366 19.2905C9.91241 19.4587 10.1362 19.515 10.3204 19.4229L11.8322 18.667C12.7085 18.2288 13.1611 17.2392 12.9194 16.2897L12.1667 13.333ZM5.8335 11.1768V4.16638H15.134L17.5002 9.91271V11.6664H12.1667C11.0794 11.6664 10.2833 12.6906 10.5515 13.7442L11.3042 16.7008C11.3526 16.8908 11.2621 17.0887 11.0867 17.1763L10.5358 17.4518L6.61079 11.8913C6.40254 11.5963 6.13634 11.3545 5.8335 11.1768ZM4.16683 10.833H2.50016V4.16638H4.16683V10.833Z" fill="#A1A1AA"/>
</svg>
