<svg width="17" height="16" viewBox="0 0 17 16" fill="none" xmlns="http://www.w3.org/2000/svg">
<g clip-path="url(#clip0_74_4)">
<path d="M2.66602 8C2.66602 8.78793 2.82121 9.56815 3.12274 10.2961C3.42427 11.0241 3.86622 11.6855 4.42337 12.2426C4.98053 12.7998 5.64196 13.2417 6.36992 13.5433C7.09787 13.8448 7.87808 14 8.66602 14C9.45395 14 10.2342 13.8448 10.9621 13.5433C11.6901 13.2417 12.3515 12.7998 12.9087 12.2426C13.4658 11.6855 13.9078 11.0241 14.2093 10.2961C14.5108 9.56815 14.666 8.78793 14.666 8C14.666 7.21207 14.5108 6.43185 14.2093 5.7039C13.9078 4.97595 13.4658 4.31451 12.9087 3.75736C12.3515 3.20021 11.6901 2.75825 10.9621 2.45672C10.2342 2.15519 9.45395 2 8.66602 2C7.87808 2 7.09787 2.15519 6.36992 2.45672C5.64196 2.75825 4.98053 3.20021 4.42337 3.75736C3.86622 4.31451 3.42427 4.97595 3.12274 5.7039C2.82121 6.43185 2.66602 7.21207 2.66602 8Z" stroke="#D9A32E" stroke-width="1.25" stroke-linecap="round" stroke-linejoin="round"/>
<path d="M6.66602 6.66663C6.66602 7.19706 6.87673 7.70577 7.2518 8.08084C7.62687 8.45591 8.13558 8.66663 8.66602 8.66663C9.19645 8.66663 9.70516 8.45591 10.0802 8.08084C10.4553 7.70577 10.666 7.19706 10.666 6.66663C10.666 6.13619 10.4553 5.62749 10.0802 5.25241C9.70516 4.87734 9.19645 4.66663 8.66602 4.66663C8.13558 4.66663 7.62687 4.87734 7.2518 5.25241C6.87673 5.62749 6.66602 6.13619 6.66602 6.66663Z" stroke="#D9A32E" stroke-width="1.25" stroke-linecap="round" stroke-linejoin="round"/>
<path d="M4.77832 12.566C4.94333 12.0168 5.28097 11.5354 5.74115 11.1933C6.20134 10.8511 6.75955 10.6665 7.33299 10.6666H9.99965C10.5738 10.6664 11.1327 10.8516 11.5932 11.1945C12.0538 11.5374 12.3913 12.0198 12.5557 12.57" stroke="#D9A32E" stroke-width="1.25" stroke-linecap="round" stroke-linejoin="round"/>
</g>
<defs>
<clipPath id="clip0_74_4">
<rect width="16" height="16" fill="white" transform="translate(0.666016)"/>
</clipPath>
</defs>
</svg>
