<svg width="17" height="16" viewBox="0 0 17 16" fill="none" xmlns="http://www.w3.org/2000/svg">
<g clip-path="url(#clip0_14_472)">
<path d="M7 8.66671C7 9.02033 7.14048 9.35947 7.39052 9.60952C7.64057 9.85956 7.97971 10 8.33333 10C8.68696 10 9.02609 9.85956 9.27614 9.60952C9.52619 9.35947 9.66667 9.02033 9.66667 8.66671C9.66667 8.31309 9.52619 7.97395 9.27614 7.7239C9.02609 7.47385 8.68696 7.33337 8.33333 7.33337C7.97971 7.33337 7.64057 7.47385 7.39052 7.7239C7.14048 7.97395 7 8.31309 7 8.66671Z" stroke="#D9A32E" stroke-width="1.25" stroke-linecap="round" stroke-linejoin="round"/>
<path d="M5.66699 14V13.3333C5.66699 12.9797 5.80747 12.6406 6.05752 12.3905C6.30757 12.1405 6.6467 12 7.00033 12H9.66699C10.0206 12 10.3598 12.1405 10.6098 12.3905C10.8598 12.6406 11.0003 12.9797 11.0003 13.3333V14" stroke="#D9A32E" stroke-width="1.25" stroke-linecap="round" stroke-linejoin="round"/>
<path d="M10.3335 3.33333C10.3335 3.68696 10.474 4.02609 10.724 4.27614C10.9741 4.52619 11.3132 4.66667 11.6668 4.66667C12.0205 4.66667 12.3596 4.52619 12.6096 4.27614C12.8597 4.02609 13.0002 3.68696 13.0002 3.33333C13.0002 2.97971 12.8597 2.64057 12.6096 2.39052C12.3596 2.14048 12.0205 2 11.6668 2C11.3132 2 10.9741 2.14048 10.724 2.39052C10.474 2.64057 10.3335 2.97971 10.3335 3.33333Z" stroke="#D9A32E" stroke-width="1.25" stroke-linecap="round" stroke-linejoin="round"/>
<path d="M11.667 6.66663H13.0003C13.3539 6.66663 13.6931 6.8071 13.9431 7.05715C14.1932 7.3072 14.3337 7.64634 14.3337 7.99996V8.66663" stroke="#D9A32E" stroke-width="1.25" stroke-linecap="round" stroke-linejoin="round"/>
<path d="M3.66699 3.33333C3.66699 3.68696 3.80747 4.02609 4.05752 4.27614C4.30756 4.52619 4.6467 4.66667 5.00033 4.66667C5.35395 4.66667 5.69309 4.52619 5.94313 4.27614C6.19318 4.02609 6.33366 3.68696 6.33366 3.33333C6.33366 2.97971 6.19318 2.64057 5.94313 2.39052C5.69309 2.14048 5.35395 2 5.00033 2C4.6467 2 4.30756 2.14048 4.05752 2.39052C3.80747 2.64057 3.66699 2.97971 3.66699 3.33333Z" stroke="#D9A32E" stroke-width="1.25" stroke-linecap="round" stroke-linejoin="round"/>
<path d="M2.3335 8.66663V7.99996C2.3335 7.64634 2.47397 7.3072 2.72402 7.05715C2.97407 6.8071 3.31321 6.66663 3.66683 6.66663H5.00016" stroke="#D9A32E" stroke-width="1.25" stroke-linecap="round" stroke-linejoin="round"/>
</g>
<defs>
<clipPath id="clip0_14_472">
<rect width="16" height="16" fill="white" transform="translate(0.333496)"/>
</clipPath>
</defs>
</svg>
