<svg width="20" height="20" viewBox="0 0 20 20" fill="none" xmlns="http://www.w3.org/2000/svg">
<path d="M12.1667 6.66698H17.5002C18.4207 6.66698 19.1668 7.41317 19.1668 8.33362V10.0873C19.1668 10.305 19.1242 10.5205 19.0413 10.7219L16.4627 16.9843C16.3341 17.2965 16.0297 17.5003 15.6921 17.5003H1.66683C1.2066 17.5003 0.833496 17.1272 0.833496 16.667V8.33362C0.833496 7.87341 1.2066 7.50032 1.66683 7.50032H4.56836C4.83914 7.50032 5.09302 7.36876 5.24917 7.14755L9.79366 0.709503C9.91241 0.541279 10.1362 0.485022 10.3204 0.57711L11.8322 1.33297C12.7085 1.77116 13.1611 2.76081 12.9194 3.71033L12.1667 6.66698ZM5.8335 8.82321V15.8336H15.134L17.5002 10.0873V8.33362H12.1667C11.0794 8.33362 10.2833 7.30944 10.5515 6.2558L11.3042 3.29916C11.3526 3.10925 11.2621 2.91132 11.0867 2.82368L10.5358 2.54821L6.61079 8.10869C6.40254 8.40371 6.13634 8.64554 5.8335 8.82321ZM4.16683 9.16696H2.50016V15.8336H4.16683V9.16696Z" fill="#A1A1AA"/>
</svg>
