<svg width="20" height="20" viewBox="0 0 20 20" fill="none" xmlns="http://www.w3.org/2000/svg">
<path d="M12.1662 6.66695H17.4997C18.4202 6.66695 19.1663 7.41314 19.1663 8.33359V10.0873C19.1663 10.3049 19.1237 10.5205 19.0408 10.7218L16.4622 16.9843C16.3336 17.2965 16.0293 17.5003 15.6916 17.5003H1.66634C1.20611 17.5003 0.833008 17.1272 0.833008 16.6669V8.33359C0.833008 7.87338 1.20611 7.50028 1.66634 7.50028H4.56787C4.83865 7.50028 5.09253 7.36873 5.24868 7.14752L9.79318 0.709473C9.91193 0.541249 10.1358 0.484992 10.3199 0.577079L11.8317 1.33294C12.708 1.77113 13.1606 2.76078 12.9189 3.7103L12.1662 6.66695ZM5.83301 8.82318V15.8336H15.1335L17.4997 10.0873V8.33359H12.1662C11.0789 8.33359 10.2828 7.30941 10.551 6.25577L11.3038 3.29913C11.3521 3.10922 11.2616 2.91129 11.0863 2.82365L10.5353 2.54818L6.6103 8.10866C6.40205 8.40368 6.13585 8.64551 5.83301 8.82318ZM4.16634 9.16693H2.49967V15.8336H4.16634V9.16693Z" fill="#D9A32E"/>
</svg>
