<svg width="226" height="26" viewBox="0 0 226 26" fill="none" xmlns="http://www.w3.org/2000/svg">
<g clip-path="url(#clip0_14_794)">
<path d="M1.6891 23.9971V19.9674C4.30582 20.9105 7.07038 21.3771 9.85169 21.3451C13.5254 21.3451 15.3623 20.1144 15.3623 17.6529C15.3623 15.862 14.2303 14.9665 11.9664 14.9665H8.20539C3.29176 14.9665 0.834961 12.7278 0.834961 8.25048C0.834961 3.32307 4.33419 0.859386 11.3327 0.859386C13.9276 0.844992 16.5084 1.24256 18.9786 2.03727V6.03935C16.5333 5.12504 13.9433 4.65838 11.3327 4.6617C7.30073 4.6617 5.28477 5.83729 5.28477 8.18848C5.28477 9.97943 6.25831 10.8749 8.20539 10.8749H11.9664C17.1969 10.8749 19.8121 13.1136 19.8121 17.591C19.8121 22.6423 16.4874 25.168 9.8379 25.168C7.07702 25.2077 4.32711 24.8125 1.6891 23.9971Z" fill="#E6E7E7"/>
<path d="M42.0336 23.9971C39.7732 24.8139 37.3832 25.213 34.98 25.175C26.3559 25.175 22.0462 21.003 22.0508 12.659C22.0508 4.76505 26.3605 0.818094 34.98 0.818094C37.3832 0.779593 39.7734 1.17872 42.0336 1.99598V6.03939C39.9139 5.1219 37.6273 4.65285 35.3176 4.66173C29.5498 4.66173 26.6659 7.32059 26.6659 12.6383C26.6659 18.4061 29.5498 21.29 35.3176 21.29C37.6273 21.2991 39.914 20.83 42.0336 19.9124V23.942V23.9971Z" fill="#E6E7E7"/>
<path d="M45.5466 24.9751V0.990234H56.4645C61.3689 0.990234 63.8212 3.13478 63.8212 7.42387C63.8212 10.3261 61.9131 12.7278 58.097 14.629L65.6741 25.0096H60.067L52.7586 14.5463V12.4798C57.011 11.7543 59.1371 10.1034 59.1371 7.52719C59.1371 5.7592 58.1406 4.8752 56.1476 4.8752H50.0515V24.9476H45.519L45.5466 24.9751Z" fill="#E6E7E7"/>
<path d="M83.5564 0.990234V4.82011H71.5295V10.8611H82.9709V14.8425H71.4675V21.1453H83.7768V25.0096H67.1279V0.990234H83.5702H83.5564Z" fill="#E6E7E7"/>
<path d="M103.635 0.990234V4.82011H91.6362V10.8611H103.084V14.8425H91.581V21.1453H103.89V25.0096H87.2139V0.990234H103.635Z" fill="#E6E7E7"/>
<path d="M107.321 25.0096V0.990234H111.771L124.452 18.4933V0.990234H128.736V25.0096H124.3L111.619 7.14145V25.0096H107.335H107.321Z" fill="#E6E7E7"/>
<path d="M136.596 24.9751V0.990234H147.514C152.418 0.990234 154.87 3.13478 154.87 7.42387C154.87 10.3261 152.962 12.7278 149.146 14.629L156.723 25.0096H151.164L143.856 14.5463V12.4798C148.113 11.7543 150.241 10.1034 150.241 7.52719C150.241 5.7592 149.245 4.8752 147.252 4.8752H141.156V24.9476H136.623L136.596 24.9751Z" fill="#D9A32E"/>
<path d="M160.628 25.0096H156.062L166.256 0.990234H171.043L181.472 25.0096H176.651L173.895 18.4589H165.953L167.482 14.5945H172.304L168.522 5.5778L160.628 25.0096Z" fill="#D9A32E"/>
<path d="M183.712 25.0096V0.990234H188.162L200.843 18.4933V0.990234H205.128V25.0096H200.678L187.996 7.14145V25.0096H183.712Z" fill="#D9A32E"/>
<path d="M225.178 0.990234V4.85454H218.29V25.0096H213.847V4.85454H206.959V0.990234H225.185H225.178Z" fill="#D9A32E"/>
</g>
<defs>
<clipPath id="clip0_14_794">
<rect width="224.358" height="24.35" fill="white" transform="translate(0.821289 0.824951)"/>
</clipPath>
</defs>
</svg>
