<svg width="40" height="40" viewBox="0 0 40 40" fill="none" xmlns="http://www.w3.org/2000/svg">
<path d="M19.9997 36.6666C10.7949 36.6666 3.33301 29.2046 3.33301 20C3.33301 10.7952 10.7949 3.33331 19.9997 3.33331C29.2043 3.33331 36.6663 10.7952 36.6663 20C36.6663 29.2046 29.2043 36.6666 19.9997 36.6666ZM19.9997 33.3333C27.3635 33.3333 33.333 27.3638 33.333 20C33.333 12.6362 27.3635 6.66665 19.9997 6.66665C12.6359 6.66665 6.66634 12.6362 6.66634 20C6.66634 27.3638 12.6359 33.3333 19.9997 33.3333ZM17.7028 14.0243L25.8343 19.4453C26.1407 19.6495 26.2235 20.0635 26.0192 20.3698C25.9703 20.443 25.9075 20.5058 25.8343 20.5546L17.7028 25.9756C17.3965 26.18 16.9825 26.0971 16.7783 25.7908C16.7053 25.6813 16.6663 25.5526 16.6663 25.421V14.579C16.6663 14.2108 16.9648 13.9123 17.333 13.9123C17.4647 13.9123 17.5933 13.9513 17.7028 14.0243Z" fill="white"/>
</svg>
